<svg id="Layer_2_00000173157395094912991990000005699763639059016860_" enable-background="new 0 0 512 512" height="512" viewBox="0 0 512 512" width="512" xmlns="http://www.w3.org/2000/svg" xmlns:xlink="http://www.w3.org/1999/xlink"><linearGradient id="UserCheckCircle_00000016791415137546241180000012200946054562534568_" gradientTransform="matrix(1 0 0 -1 0 513.64)" gradientUnits="userSpaceOnUse" x1="61.15" x2="380.155" y1="368.898" y2="49.892"><stop offset="0" stop-color="#64b5f6"/><stop offset="1" stop-color="#1976d2"/></linearGradient><g id="_04.Icon"><path id="UserCheckCircle" d="m360.1 467.2h-312.7c-27.1 0-46.4-26.4-38.1-52.2l32.9-102.8c10.6-33 46.7-50.1 78.9-37.6 21.4 8.3 48.9 14.8 82.6 14.8s61.2-6.5 82.6-14.8c1.2-.5 2.5-.9 3.8-1.3v2.5c0 59.1 43.9 108.1 100.8 116.1l7.4 23.1c8.2 25.8-11 52.2-38.2 52.2zm-156.3-422.4c-56.9 0-103.1 46.2-103.1 103.1s46.2 103.1 103.1 103.1 103.1-46.2 103.1-103.1-46.2-103.1-103.1-103.1zm300.8 230.9c0 53.7-43.5 97.3-97.3 97.3-53.7 0-97.3-43.5-97.3-97.3s43.6-97.3 97.3-97.3c53.7.1 97.3 43.6 97.3 97.3zm-37.3-45.7c-6.9-6.9-18.1-6.9-25 0l-54 54-15.9-15.9c-6.9-6.9-18.1-6.9-25 0-6.9 6.9-6.9 18.1 0 25l28.4 28.4c6.9 6.9 18.1 6.9 25 0l66.6-66.6c6.8-6.8 6.8-18-.1-24.9z" fill="url(#UserCheckCircle_00000016791415137546241180000012200946054562534568_)"/></g></svg>