<svg xmlns="http://www.w3.org/2000/svg" version="1.1" xmlns:xlink="http://www.w3.org/1999/xlink" width="512" height="512" x="0" y="0" viewBox="0 0 64 64" style="enable-background:new 0 0 512 512" xml:space="preserve" fill-rule="evenodd" class=""><g><linearGradient id="a" x1="0" x2="1" y1="0" y2="0" gradientTransform="matrix(60.001 0 0 44 1930 44.767)" gradientUnits="userSpaceOnUse"><stop offset="0" stop-color="#03318c"></stop><stop offset=".5" stop-color="#0554f2"></stop><stop offset="1" stop-color="#0894dd"></stop></linearGradient><path fill="url(#a)" d="M1930 26v28a7.998 7.998 0 0 0 8 8h44a7.998 7.998 0 0 0 8-8V26a8 8 0 0 0-8-8h-44a8 8 0 0 0-8 8zm55.86-1.042L1960 40.66l-25.86-15.702A3.998 3.998 0 0 1 1938 22h44c1.85 0 3.4 1.254 3.86 2.958z" transform="translate(-1928 -8)" opacity="1" data-original="url(#a)" class=""></path></g></svg>