<svg id="glyph_copy" viewBox="0 0 64 64" xmlns="http://www.w3.org/2000/svg" xmlns:xlink="http://www.w3.org/1999/xlink" data-name="glyph copy"><linearGradient id="linear-gradient" gradientUnits="userSpaceOnUse" x1="8.788" x2="55.212" y1="32" y2="32"><stop offset="0" stop-color="#00c0ff"/><stop offset="1" stop-color="#5558ff"/></linearGradient><path d="m53.01566 14.00548a5.4789 5.4789 0 0 0 -2.30966 4.36176 1.04153 1.04153 0 1 1 -2.02852-.00006 7.48731 7.48731 0 0 1 3.12201-5.98518 3.52161 3.52161 0 1 0 -5.62808-2.82 1.01452 1.01452 0 0 1 -2.02865-.00007 5.586 5.586 0 0 1 6.65141-5.4413c4.62483.80754 6.03097 7.18376 2.22149 9.88485zm-3.314 8.2654a1.0145 1.0145 0 0 0 .00984 2.02859 1.0145 1.0145 0 0 0 -.00987-2.02859zm-20.29258 10.13853c-10.77179 0-18.63256 7.16091-20.51913 18.69342a7.64817 7.64817 0 0 0 7.53619 8.89537h25.96586a7.69706 7.69706 0 0 0 7.526-8.89544c-1.88652-11.53244-9.74729-18.69335-20.50892-18.69335zm0-1.72424a11.31884 11.31884 0 0 0 11.40064-11.208 11.31236 11.31236 0 0 0 -11.40058-11.208c-15.13441.61414-15.13914 21.79333-.00006 22.416z" fill="url(#linear-gradient)"/></svg>