<svg width="96" height="96" viewBox="0 0 96 96" fill="none" xmlns="http://www.w3.org/2000/svg">
<path d="M74.0852 75.1314C73.5318 75.1312 73.0011 74.9113 72.6098 74.5199L39.2185 41.1286C38.8383 40.735 38.628 40.2078 38.6327 39.6606C38.6375 39.1134 38.8569 38.59 39.2439 38.2031C39.6308 37.8161 40.1543 37.5966 40.7015 37.5919C41.2486 37.5871 41.7758 37.7975 42.1694 38.1776L75.5607 71.5689C75.8525 71.8608 76.0512 72.2326 76.1317 72.6374C76.2122 73.0422 76.1708 73.4617 76.0129 73.843C75.855 74.2243 75.5876 74.5502 75.2445 74.7795C74.9013 75.0088 74.4979 75.1313 74.0852 75.1314Z" fill="url(#paint0_linear_101_1771)"/>
<path d="M53.2168 95.9998C57.8272 95.9998 61.5647 92.2624 61.5647 87.652C61.5647 83.0416 57.8272 79.3042 53.2168 79.3042C48.6065 79.3042 44.869 83.0416 44.869 87.652C44.869 92.2624 48.6065 95.9998 53.2168 95.9998Z" fill="url(#paint1_linear_101_1771)"/>
<path d="M86.6082 95.9998C91.2185 95.9998 94.956 92.2624 94.956 87.652C94.956 83.0416 91.2185 79.3042 86.6082 79.3042C81.9978 79.3042 78.2603 83.0416 78.2603 87.652C78.2603 92.2624 81.9978 95.9998 86.6082 95.9998Z" fill="url(#paint2_linear_101_1771)"/>
<path d="M82.4343 33.3915C87.0446 33.3915 90.7821 29.654 90.7821 25.0436C90.7821 20.4332 87.0446 16.6958 82.4343 16.6958C77.8239 16.6958 74.0864 20.4332 74.0864 25.0436C74.0864 29.654 77.8239 33.3915 82.4343 33.3915Z" fill="url(#paint3_linear_101_1771)"/>
<g filter="url(#filter0_i_101_1771)">
<path d="M69.9125 39.6529H51.1299C50.5764 39.6529 50.0456 39.433 49.6542 39.0416C49.2628 38.6502 49.043 38.1194 49.043 37.5659C49.043 37.0124 49.2628 36.4816 49.6542 36.0902C50.0456 35.6988 50.5764 35.479 51.1299 35.479H69.0485L78.8718 25.6557C79.2654 25.2755 79.7926 25.0651 80.3398 25.0699C80.887 25.0747 81.4104 25.2941 81.7974 25.6811C82.1843 26.068 82.4038 26.5915 82.4085 27.1386C82.4133 27.6858 82.2029 28.213 81.8228 28.6066L71.388 39.0414C70.9967 39.4328 70.466 39.6528 69.9125 39.6529Z" fill="white" fill-opacity="0.1"/>
</g>
<path d="M80.3359 25.5698C80.7518 25.5736 81.1493 25.7407 81.4434 26.0347C81.7376 26.3289 81.9046 26.727 81.9082 27.1431C81.9114 27.507 81.7895 27.8592 81.5654 28.1421L81.4629 28.2593L71.0342 38.688C70.7367 38.9855 70.3329 39.1527 69.9121 39.1528H51.1299C50.709 39.1528 50.3054 38.9856 50.0078 38.688C49.7102 38.3904 49.543 37.9868 49.543 37.5659C49.543 37.145 49.7102 36.7415 50.0078 36.4438C50.3054 36.1462 50.709 35.979 51.1299 35.979H69.2559L79.2256 26.0093L79.2246 26.0083C79.5232 25.7231 79.9228 25.5662 80.3359 25.5698Z" stroke="url(#paint4_linear_101_1771)" stroke-opacity="0.1"/>
<g filter="url(#filter1_i_101_1771)">
<path d="M86.6082 83.478C86.0547 83.478 85.5239 83.2582 85.1325 82.8668C84.7411 82.4754 84.5212 81.9446 84.5212 81.3911V73.9073L73.2224 62.6085H67.8256C67.2721 62.6085 66.7413 62.3886 66.3499 61.9972C65.9585 61.6058 65.7386 61.075 65.7386 60.5215C65.7386 59.968 65.9585 59.4372 66.3499 59.0458C66.7413 58.6544 67.2721 58.4346 67.8256 58.4346H74.0864C74.6399 58.4347 75.1706 58.6546 75.5619 59.046L88.0837 71.5678C88.4751 71.9591 88.695 72.4898 88.6951 73.0433V81.3911C88.6951 81.9446 88.4753 82.4754 88.0839 82.8668C87.6925 83.2582 87.1617 83.478 86.6082 83.478Z" fill="white" fill-opacity="0.1"/>
</g>
<path d="M85.0208 73.7002L73.5755 62.2549L73.43 62.1084H67.8255C67.4047 62.1084 67.0011 61.9412 66.7035 61.6436C66.4059 61.3459 66.2386 60.9424 66.2386 60.5215C66.2386 60.1006 66.4059 59.697 66.7035 59.3994C67.0011 59.1018 67.4047 58.9346 67.8255 58.9346H74.0863C74.4545 58.9346 74.8098 59.0625 75.0921 59.2939L75.2083 59.3994L87.7298 71.9209V71.9219C88.0273 72.2193 88.1945 72.6223 88.1947 73.043V81.3906C88.1947 81.8115 88.0284 82.2161 87.7308 82.5137C87.4332 82.8113 87.0286 82.9785 86.6078 82.9785C86.187 82.9784 85.7832 82.8112 85.4857 82.5137C85.1881 82.2161 85.0208 81.8115 85.0208 81.3906V73.7002Z" stroke="url(#paint5_linear_101_1771)" stroke-opacity="0.1"/>
<g filter="url(#filter2_i_101_1771)">
<path d="M48.7905 85.3127C48.237 85.3126 47.7063 85.0926 47.315 84.7012L37.1327 74.519C36.7413 74.1277 36.5214 73.5969 36.5212 73.0435V50.087C36.5212 49.5335 36.7411 49.0026 37.1325 48.6113C37.5239 48.2199 38.0547 48 38.6082 48C39.1617 48 39.6925 48.2199 40.0839 48.6113C40.4753 49.0026 40.6952 49.5335 40.6952 50.087V72.1795L50.2659 81.7503C50.5577 82.0421 50.7564 82.4139 50.8369 82.8187C50.9174 83.2235 50.876 83.643 50.7181 84.0243C50.5602 84.4056 50.2928 84.7315 49.9497 84.9608C49.6066 85.1902 49.2032 85.3126 48.7905 85.3127Z" fill="white" fill-opacity="0.1"/>
</g>
<path d="M38.6082 48.5C39.029 48.5 39.4326 48.6673 39.7302 48.9648C40.0278 49.2624 40.1951 49.666 40.1951 50.0869V72.3867L40.3416 72.5332L49.9119 82.1035C50.1337 82.3254 50.2852 82.6083 50.3464 82.916C50.4076 83.2238 50.3766 83.5431 50.2566 83.833C50.1365 84.1229 49.9325 84.3705 49.6716 84.5449C49.4108 84.7192 49.1044 84.8123 48.7908 84.8125C48.3699 84.8124 47.9662 84.6453 47.6687 84.3477L37.4861 74.165C37.2258 73.9047 37.0652 73.5634 37.0291 73.2002L37.0212 73.043V50.0869C37.0213 49.666 37.1885 49.2624 37.4861 48.9648C37.7837 48.6672 38.1873 48.5 38.6082 48.5Z" stroke="url(#paint6_linear_101_1771)" stroke-opacity="0.1"/>
<foreignObject x="-10.957" y="-12" width="99.1304" height="99.1305"><div xmlns="http://www.w3.org/1999/xhtml" style="backdrop-filter:blur(6px);clip-path:url(#bgblur_0_101_1771_clip_path);height:100%;width:100%"></div></foreignObject><g filter="url(#filter3_i_101_1771)" data-figma-bg-blur-radius="12">
<path d="M75.5619 59.0463L71.388 54.8724C70.9967 54.4809 70.466 54.261 69.9125 54.2609H65.7386C65.1851 54.2609 64.6543 54.041 64.2629 53.6496C63.8715 53.2582 63.6517 52.7274 63.6517 52.1739V48C63.6516 47.4466 63.4316 46.9158 63.0402 46.5245L45.9918 29.4762C46.6294 27.3616 46.9542 25.1651 46.956 22.9565C46.956 18.4162 45.6096 13.9778 43.0871 10.2026C40.5647 6.42739 36.9793 3.485 32.7846 1.74747C28.5898 0.00994678 23.974 -0.444669 19.5209 0.441113C15.0678 1.3269 10.9773 3.51329 7.76679 6.72382C4.55626 9.93435 2.36986 14.0248 1.48408 18.4779C0.5983 22.9311 1.05292 27.5469 2.79044 31.7416C4.52796 35.9364 7.47036 39.5217 11.2455 42.0442C15.0207 44.5667 19.4591 45.9131 23.9995 45.9131C26.2081 45.9113 28.4046 45.5864 30.5191 44.9489L37.7442 52.1739H42.7821C43.3356 52.1739 43.8664 52.3938 44.2578 52.7852C44.6492 53.1766 44.8691 53.7074 44.8691 54.2609V59.2988L47.5675 61.9972C47.9588 62.3886 48.4895 62.6086 49.043 62.6087H53.2169C53.7704 62.6087 54.3012 62.8286 54.6926 63.22C55.084 63.6113 55.3038 64.1422 55.3038 64.6957V68.8696C55.304 69.423 55.5239 69.9538 55.9153 70.3451L60.0892 74.519C60.4805 74.9104 61.0113 75.1303 61.5647 75.1304H74.0864C74.6399 75.1304 75.1708 74.9106 75.5621 74.5192C75.9535 74.1278 76.1734 73.597 76.1734 73.0435V60.5218C76.1733 59.9683 75.9533 59.4376 75.5619 59.0463ZM18.7821 25.0435C17.3374 25.0435 15.9252 24.6151 14.724 23.8125C13.5228 23.0099 12.5866 21.8691 12.0338 20.5344C11.4809 19.1997 11.3363 17.731 11.6181 16.3141C11.9 14.8972 12.5956 13.5957 13.6172 12.5742C14.6387 11.5527 15.9402 10.857 17.3571 10.5751C18.774 10.2933 20.2427 10.438 21.5774 10.9908C22.9121 11.5437 24.0528 12.4799 24.8554 13.6811C25.6581 14.8823 26.0865 16.2945 26.0865 17.7391C26.0865 19.6764 25.3169 21.5343 23.9471 22.9041C22.5772 24.2739 20.7193 25.0435 18.7821 25.0435Z" fill="#1D1D1D" fill-opacity="0.05"/>
<path d="M75.5619 59.0463L71.388 54.8724C70.9967 54.4809 70.466 54.261 69.9125 54.2609H65.7386C65.1851 54.2609 64.6543 54.041 64.2629 53.6496C63.8715 53.2582 63.6517 52.7274 63.6517 52.1739V48C63.6516 47.4466 63.4316 46.9158 63.0402 46.5245L45.9918 29.4762C46.6294 27.3616 46.9542 25.1651 46.956 22.9565C46.956 18.4162 45.6096 13.9778 43.0871 10.2026C40.5647 6.42739 36.9793 3.485 32.7846 1.74747C28.5898 0.00994678 23.974 -0.444669 19.5209 0.441113C15.0678 1.3269 10.9773 3.51329 7.76679 6.72382C4.55626 9.93435 2.36986 14.0248 1.48408 18.4779C0.5983 22.9311 1.05292 27.5469 2.79044 31.7416C4.52796 35.9364 7.47036 39.5217 11.2455 42.0442C15.0207 44.5667 19.4591 45.9131 23.9995 45.9131C26.2081 45.9113 28.4046 45.5864 30.5191 44.9489L37.7442 52.1739H42.7821C43.3356 52.1739 43.8664 52.3938 44.2578 52.7852C44.6492 53.1766 44.8691 53.7074 44.8691 54.2609V59.2988L47.5675 61.9972C47.9588 62.3886 48.4895 62.6086 49.043 62.6087H53.2169C53.7704 62.6087 54.3012 62.8286 54.6926 63.22C55.084 63.6113 55.3038 64.1422 55.3038 64.6957V68.8696C55.304 69.423 55.5239 69.9538 55.9153 70.3451L60.0892 74.519C60.4805 74.9104 61.0113 75.1303 61.5647 75.1304H74.0864C74.6399 75.1304 75.1708 74.9106 75.5621 74.5192C75.9535 74.1278 76.1734 73.597 76.1734 73.0435V60.5218C76.1733 59.9683 75.9533 59.4376 75.5619 59.0463ZM18.7821 25.0435C17.3374 25.0435 15.9252 24.6151 14.724 23.8125C13.5228 23.0099 12.5866 21.8691 12.0338 20.5344C11.4809 19.1997 11.3363 17.731 11.6181 16.3141C11.9 14.8972 12.5956 13.5957 13.6172 12.5742C14.6387 11.5527 15.9402 10.857 17.3571 10.5751C18.774 10.2933 20.2427 10.438 21.5774 10.9908C22.9121 11.5437 24.0528 12.4799 24.8554 13.6811C25.6581 14.8823 26.0865 16.2945 26.0865 17.7391C26.0865 19.6764 25.3169 21.5343 23.9471 22.9041C22.5772 24.2739 20.7193 25.0435 18.7821 25.0435Z" fill="url(#paint7_linear_101_1771)" fill-opacity="0.2"/>
<path d="M19.6182 0.931641C23.9741 0.0651892 28.4895 0.50949 32.5928 2.20898C36.6962 3.90867 40.2043 6.78751 42.6719 10.4805C45.1392 14.1732 46.456 18.5149 46.4561 22.9561C46.4543 25.1159 46.1362 27.2641 45.5127 29.332L45.4268 29.6182L62.6865 46.8779C62.9841 47.1754 63.1512 47.5792 63.1514 48V52.1738C63.1514 52.8598 63.4242 53.5178 63.9092 54.0029C64.3942 54.488 65.0523 54.7607 65.7383 54.7607H69.9121C70.3328 54.7608 70.7367 54.9281 71.0342 55.2256L75.208 59.3994C75.5056 59.6969 75.6736 60.1008 75.6738 60.5215V73.0439C75.6737 73.4647 75.5065 73.8685 75.209 74.166C74.9115 74.4635 74.5076 74.6307 74.0869 74.6309H61.5645C61.1437 74.6307 60.7398 74.4626 60.4424 74.165L56.2686 69.9912C55.9711 69.6937 55.8038 69.2899 55.8037 68.8691V64.6953C55.8036 64.0093 55.531 63.3513 55.0459 62.8662C54.5608 62.3812 53.9028 62.1084 53.2168 62.1084H49.043C48.6222 62.1083 48.2184 61.9412 47.9209 61.6436L45.3691 59.0918V54.2607C45.3691 53.5747 45.0964 52.9168 44.6113 52.4316C44.1262 51.9465 43.4683 51.6739 42.7822 51.6738H37.9512L30.6611 44.3838L30.375 44.4697C28.3071 45.0932 26.1589 45.4113 23.999 45.4131C19.5578 45.413 15.2162 44.0962 11.5234 41.6289C7.83048 39.1614 4.95163 35.6532 3.25195 31.5498C1.55246 27.4466 1.10816 22.9311 1.97461 18.5752C2.84114 14.2192 4.97959 10.2177 8.12012 7.07715C11.2606 3.93662 15.2621 1.79817 19.6182 0.931641ZM21.7686 10.5293C20.3425 9.93863 18.7736 9.78387 17.2598 10.085C15.7459 10.3861 14.3551 11.1292 13.2637 12.2207C12.1722 13.3122 11.4291 14.7029 11.1279 16.2168C10.8268 17.7306 10.9816 19.2996 11.5723 20.7256C12.163 22.1516 13.1629 23.371 14.4463 24.2285C15.7297 25.086 17.2387 25.5439 18.7822 25.5439C20.852 25.5439 22.8372 24.7214 24.3008 23.2578C25.7644 21.7942 26.5869 19.8091 26.5869 17.7393C26.5869 16.1958 26.129 14.6867 25.2715 13.4033C24.4139 12.1199 23.1946 11.12 21.7686 10.5293Z" stroke="url(#paint8_linear_101_1771)" stroke-opacity="0.1"/>
</g>
<g filter="url(#filter4_i_101_1771)">
<path d="M74.0854 75.1314C73.532 75.1312 73.0012 74.9113 72.6099 74.5199L39.2186 41.1286C38.8385 40.735 38.6281 40.2078 38.6329 39.6606C38.6376 39.1134 38.8571 38.59 39.2441 38.2031C39.631 37.8161 40.1544 37.5966 40.7016 37.5919C41.2488 37.5871 41.776 37.7975 42.1696 38.1776L75.5609 71.5689C75.8527 71.8608 76.0514 72.2326 76.1319 72.6374C76.2123 73.0422 76.171 73.4617 76.0131 73.843C75.8552 74.2243 75.5878 74.5502 75.2446 74.7795C74.9015 75.0088 74.4981 75.1313 74.0854 75.1314Z" fill="white" fill-opacity="0.1"/>
</g>
<defs>
<filter id="filter0_i_101_1771" x="49.043" y="25.0698" width="33.3657" height="16.583" filterUnits="userSpaceOnUse" color-interpolation-filters="sRGB">
<feFlood flood-opacity="0" result="BackgroundImageFix"/>
<feBlend mode="normal" in="SourceGraphic" in2="BackgroundImageFix" result="shape"/>
<feColorMatrix in="SourceAlpha" type="matrix" values="0 0 0 0 0 0 0 0 0 0 0 0 0 0 0 0 0 0 127 0" result="hardAlpha"/>
<feOffset dy="2"/>
<feGaussianBlur stdDeviation="1"/>
<feComposite in2="hardAlpha" operator="arithmetic" k2="-1" k3="1"/>
<feColorMatrix type="matrix" values="0 0 0 0 1 0 0 0 0 1 0 0 0 0 1 0 0 0 0.1 0"/>
<feBlend mode="normal" in2="shape" result="effect1_innerShadow_101_1771"/>
</filter>
<filter id="filter1_i_101_1771" x="65.7386" y="58.4346" width="22.9565" height="27.0435" filterUnits="userSpaceOnUse" color-interpolation-filters="sRGB">
<feFlood flood-opacity="0" result="BackgroundImageFix"/>
<feBlend mode="normal" in="SourceGraphic" in2="BackgroundImageFix" result="shape"/>
<feColorMatrix in="SourceAlpha" type="matrix" values="0 0 0 0 0 0 0 0 0 0 0 0 0 0 0 0 0 0 127 0" result="hardAlpha"/>
<feOffset dy="2"/>
<feGaussianBlur stdDeviation="1"/>
<feComposite in2="hardAlpha" operator="arithmetic" k2="-1" k3="1"/>
<feColorMatrix type="matrix" values="0 0 0 0 1 0 0 0 0 1 0 0 0 0 1 0 0 0 0.1 0"/>
<feBlend mode="normal" in2="shape" result="effect1_innerShadow_101_1771"/>
</filter>
<filter id="filter2_i_101_1771" x="36.5212" y="48" width="14.3557" height="39.3127" filterUnits="userSpaceOnUse" color-interpolation-filters="sRGB">
<feFlood flood-opacity="0" result="BackgroundImageFix"/>
<feBlend mode="normal" in="SourceGraphic" in2="BackgroundImageFix" result="shape"/>
<feColorMatrix in="SourceAlpha" type="matrix" values="0 0 0 0 0 0 0 0 0 0 0 0 0 0 0 0 0 0 127 0" result="hardAlpha"/>
<feOffset dy="2"/>
<feGaussianBlur stdDeviation="1"/>
<feComposite in2="hardAlpha" operator="arithmetic" k2="-1" k3="1"/>
<feColorMatrix type="matrix" values="0 0 0 0 1 0 0 0 0 1 0 0 0 0 1 0 0 0 0.1 0"/>
<feBlend mode="normal" in2="shape" result="effect1_innerShadow_101_1771"/>
</filter>
<filter id="filter3_i_101_1771" x="-10.957" y="-12" width="99.1304" height="99.1305" filterUnits="userSpaceOnUse" color-interpolation-filters="sRGB">
<feFlood flood-opacity="0" result="BackgroundImageFix"/>
<feBlend mode="normal" in="SourceGraphic" in2="BackgroundImageFix" result="shape"/>
<feColorMatrix in="SourceAlpha" type="matrix" values="0 0 0 0 0 0 0 0 0 0 0 0 0 0 0 0 0 0 127 0" result="hardAlpha"/>
<feOffset dy="2"/>
<feGaussianBlur stdDeviation="4"/>
<feComposite in2="hardAlpha" operator="arithmetic" k2="-1" k3="1"/>
<feColorMatrix type="matrix" values="0 0 0 0 1 0 0 0 0 1 0 0 0 0 1 0 0 0 0.15 0"/>
<feBlend mode="normal" in2="shape" result="effect1_innerShadow_101_1771"/>
</filter>
<clipPath id="bgblur_0_101_1771_clip_path" transform="translate(10.957 12)"><path d="M75.5619 59.0463L71.388 54.8724C70.9967 54.4809 70.466 54.261 69.9125 54.2609H65.7386C65.1851 54.2609 64.6543 54.041 64.2629 53.6496C63.8715 53.2582 63.6517 52.7274 63.6517 52.1739V48C63.6516 47.4466 63.4316 46.9158 63.0402 46.5245L45.9918 29.4762C46.6294 27.3616 46.9542 25.1651 46.956 22.9565C46.956 18.4162 45.6096 13.9778 43.0871 10.2026C40.5647 6.42739 36.9793 3.485 32.7846 1.74747C28.5898 0.00994678 23.974 -0.444669 19.5209 0.441113C15.0678 1.3269 10.9773 3.51329 7.76679 6.72382C4.55626 9.93435 2.36986 14.0248 1.48408 18.4779C0.5983 22.9311 1.05292 27.5469 2.79044 31.7416C4.52796 35.9364 7.47036 39.5217 11.2455 42.0442C15.0207 44.5667 19.4591 45.9131 23.9995 45.9131C26.2081 45.9113 28.4046 45.5864 30.5191 44.9489L37.7442 52.1739H42.7821C43.3356 52.1739 43.8664 52.3938 44.2578 52.7852C44.6492 53.1766 44.8691 53.7074 44.8691 54.2609V59.2988L47.5675 61.9972C47.9588 62.3886 48.4895 62.6086 49.043 62.6087H53.2169C53.7704 62.6087 54.3012 62.8286 54.6926 63.22C55.084 63.6113 55.3038 64.1422 55.3038 64.6957V68.8696C55.304 69.423 55.5239 69.9538 55.9153 70.3451L60.0892 74.519C60.4805 74.9104 61.0113 75.1303 61.5647 75.1304H74.0864C74.6399 75.1304 75.1708 74.9106 75.5621 74.5192C75.9535 74.1278 76.1734 73.597 76.1734 73.0435V60.5218C76.1733 59.9683 75.9533 59.4376 75.5619 59.0463ZM18.7821 25.0435C17.3374 25.0435 15.9252 24.6151 14.724 23.8125C13.5228 23.0099 12.5866 21.8691 12.0338 20.5344C11.4809 19.1997 11.3363 17.731 11.6181 16.3141C11.9 14.8972 12.5956 13.5957 13.6172 12.5742C14.6387 11.5527 15.9402 10.857 17.3571 10.5751C18.774 10.2933 20.2427 10.438 21.5774 10.9908C22.9121 11.5437 24.0528 12.4799 24.8554 13.6811C25.6581 14.8823 26.0865 16.2945 26.0865 17.7391C26.0865 19.6764 25.3169 21.5343 23.9471 22.9041C22.5772 24.2739 20.7193 25.0435 18.7821 25.0435Z"/>
</clipPath><filter id="filter4_i_101_1771" x="38.6328" y="37.5918" width="37.5391" height="39.5396" filterUnits="userSpaceOnUse" color-interpolation-filters="sRGB">
<feFlood flood-opacity="0" result="BackgroundImageFix"/>
<feBlend mode="normal" in="SourceGraphic" in2="BackgroundImageFix" result="shape"/>
<feColorMatrix in="SourceAlpha" type="matrix" values="0 0 0 0 0 0 0 0 0 0 0 0 0 0 0 0 0 0 127 0" result="hardAlpha"/>
<feOffset dy="2"/>
<feGaussianBlur stdDeviation="1"/>
<feComposite in2="hardAlpha" operator="arithmetic" k2="-1" k3="1"/>
<feColorMatrix type="matrix" values="0 0 0 0 1 0 0 0 0 1 0 0 0 0 1 0 0 0 0.1 0"/>
<feBlend mode="normal" in2="shape" result="effect1_innerShadow_101_1771"/>
</filter>
<linearGradient id="paint0_linear_101_1771" x1="38.6326" y1="37.5918" x2="82.8526" y2="48.8199" gradientUnits="userSpaceOnUse">
<stop stop-color="#75A5FF"/>
<stop offset="0.703125" stop-color="#2339FF"/>
</linearGradient>
<linearGradient id="paint1_linear_101_1771" x1="44.869" y1="79.3042" x2="64.536" y2="84.298" gradientUnits="userSpaceOnUse">
<stop stop-color="#75A5FF"/>
<stop offset="0.703125" stop-color="#2339FF"/>
</linearGradient>
<linearGradient id="paint2_linear_101_1771" x1="78.2603" y1="79.3042" x2="97.9273" y2="84.298" gradientUnits="userSpaceOnUse">
<stop stop-color="#75A5FF"/>
<stop offset="0.703125" stop-color="#2339FF"/>
</linearGradient>
<linearGradient id="paint3_linear_101_1771" x1="74.0864" y1="16.6958" x2="93.7534" y2="21.6896" gradientUnits="userSpaceOnUse">
<stop stop-color="#75A5FF"/>
<stop offset="0.703125" stop-color="#2339FF"/>
</linearGradient>
<linearGradient id="paint4_linear_101_1771" x1="50.0856" y1="25.7327" x2="82.4086" y2="25.7327" gradientUnits="userSpaceOnUse">
<stop stop-color="#3CDEB6"/>
<stop offset="0.65625" stop-color="#364AFF"/>
</linearGradient>
<linearGradient id="paint5_linear_101_1771" x1="66.456" y1="59.5729" x2="88.6951" y2="59.5729" gradientUnits="userSpaceOnUse">
<stop stop-color="#3CDEB6"/>
<stop offset="0.65625" stop-color="#364AFF"/>
</linearGradient>
<linearGradient id="paint6_linear_101_1771" x1="36.9699" y1="49.696" x2="50.877" y2="49.696" gradientUnits="userSpaceOnUse">
<stop stop-color="#3CDEB6"/>
<stop offset="0.65625" stop-color="#364AFF"/>
</linearGradient>
<linearGradient id="paint7_linear_101_1771" x1="1.04297" y1="0" x2="89.5443" y2="22.4721" gradientUnits="userSpaceOnUse">
<stop stop-color="#87FFE1"/>
<stop offset="0.776042" stop-color="#5C6DFF"/>
</linearGradient>
<linearGradient id="paint8_linear_101_1771" x1="3.3908" y1="3.41502" x2="76.1734" y2="3.41502" gradientUnits="userSpaceOnUse">
<stop stop-color="#3CDEB6"/>
<stop offset="0.65625" stop-color="#364AFF"/>
</linearGradient>
</defs>
</svg>
