<svg id="glipy_copy" height="512" viewBox="0 0 64 64" width="512" xmlns="http://www.w3.org/2000/svg" xmlns:xlink="http://www.w3.org/1999/xlink" data-name="glipy copy"><linearGradient id="linear-gradient" gradientUnits="userSpaceOnUse" x1="4" x2="60" y1="32.004" y2="32.004"><stop offset="0" stop-color="#9cffac"/><stop offset="1" stop-color="#00b59c"/></linearGradient><path d="m38.69 55c.17.11.35.22.53.32h-31.43a3.79621 3.79621 0 0 1 -3.79-3.8v-5.05a10.7697 10.7697 0 0 1 7.36-10.23l10.59-3.52c.04-.01.09-.03.13-.04-12.14323-5.7035-8.34819-23.914 5.26021-24.11 14.01422.50384 17.086 18.193 5.3996 24.14978l1.99019.66022a16.34039 16.34039 0 0 0 -.9 1.38 15.1491 15.1491 0 0 0 4.86 20.24zm21.30994-12.6701a13.105 13.105 0 1 1 -13.09994-13.0999 13.13132 13.13132 0 0 1 13.09994 13.0999zm-5.99994 5.8701-4.16-4.16a9.38194 9.38194 0 0 0 .50982-.80994 6.42546 6.42546 0 0 0 -5.6698-9.33014c-9.33587.51624-7.90637 14.08576 1.34 12.63007a6.42558 6.42558 0 0 0 2.41-1.08l4.16 4.16a.9968.9968 0 0 0 1.41 0 .97832.97832 0 0 0 -.00002-1.40999zm-13.7-7.91014c.17651 5.79272 8.58856 5.78491 8.77.00012a4.38514 4.38514 0 0 0 -8.77-.00012z" fill="url(#linear-gradient)"/></svg>