<svg width="96" height="96" viewBox="0 0 96 96" fill="none" xmlns="http://www.w3.org/2000/svg">
<path d="M48 13.3721C24.2069 13.3721 4.91016 17.9166 4.91016 23.5236V72.5891C4.91016 73.0378 5.10754 73.4682 5.45888 73.7855C5.81023 74.1028 6.28675 74.281 6.78363 74.281C7.2805 74.281 7.75703 74.1028 8.10837 73.7855C8.45972 73.4682 8.6571 73.0378 8.6571 72.5891C8.6571 69.1393 23.984 64.1295 48 64.1295C72.016 64.1295 87.3429 69.1393 87.3429 72.5891C87.3429 73.0378 87.5403 73.4682 87.8916 73.7855C88.243 74.1028 88.7195 74.281 89.2164 74.281C89.7132 74.281 90.1898 74.1028 90.5411 73.7855C90.8925 73.4682 91.0898 73.0378 91.0898 72.5891V23.5236C91.0898 17.9166 71.7931 13.3721 48 13.3721Z" fill="url(#paint0_linear_101_1759)"/>
<foreignObject x="-12" y="-5.73926" width="120" height="99.1304"><div xmlns="http://www.w3.org/1999/xhtml" style="backdrop-filter:blur(6px);clip-path:url(#bgblur_0_101_1759_clip_path);height:100%;width:100%"></div></foreignObject><g filter="url(#filter0_i_101_1759)" data-figma-bg-blur-radius="12">
<path d="M48 6.26074C21.4957 6.26074 0 11.8663 0 18.7825V79.3042C0 79.8577 0.219875 80.3885 0.611255 80.7799C1.00264 81.1713 1.53346 81.3912 2.08696 81.3912C2.64045 81.3912 3.17128 81.1713 3.56266 80.7799C3.95404 80.3885 4.17391 79.8577 4.17391 79.3042C4.17391 75.0489 21.2473 68.8694 48 68.8694C74.7527 68.8694 91.8261 75.0489 91.8261 79.3042C91.8261 79.8577 92.046 80.3885 92.4373 80.7799C92.8287 81.1713 93.3596 81.3912 93.913 81.3912C94.4665 81.3912 94.9974 81.1713 95.3887 80.7799C95.7801 80.3885 96 79.8577 96 79.3042V18.7825C96 11.8663 74.5043 6.26074 48 6.26074Z" fill="#1D1D1D" fill-opacity="0.05"/>
<path d="M48 6.26074C21.4957 6.26074 0 11.8663 0 18.7825V79.3042C0 79.8577 0.219875 80.3885 0.611255 80.7799C1.00264 81.1713 1.53346 81.3912 2.08696 81.3912C2.64045 81.3912 3.17128 81.1713 3.56266 80.7799C3.95404 80.3885 4.17391 79.8577 4.17391 79.3042C4.17391 75.0489 21.2473 68.8694 48 68.8694C74.7527 68.8694 91.8261 75.0489 91.8261 79.3042C91.8261 79.8577 92.046 80.3885 92.4373 80.7799C92.8287 81.1713 93.3596 81.3912 93.913 81.3912C94.4665 81.3912 94.9974 81.1713 95.3887 80.7799C95.7801 80.3885 96 79.8577 96 79.3042V18.7825C96 11.8663 74.5043 6.26074 48 6.26074Z" fill="url(#paint1_linear_101_1759)" fill-opacity="0.2"/>
<path d="M48 6.76074C61.2221 6.76074 73.1775 8.15979 81.8125 10.4121C86.1338 11.5393 89.5957 12.873 91.9648 14.334C94.3615 15.812 95.4999 17.3288 95.5 18.7822V79.3047C95.4999 79.7254 95.3327 80.1293 95.0352 80.4268C94.7376 80.7242 94.3339 80.8916 93.9131 80.8916C93.4923 80.8916 93.0886 80.7242 92.791 80.4268C92.4935 80.1293 92.3263 79.7254 92.3262 79.3047C92.3262 78.6016 91.975 77.9247 91.4121 77.2998C90.846 76.6714 90.0266 76.0498 88.9922 75.4463C86.9215 74.2383 83.9055 73.0532 80.0771 72.0088C72.4136 69.9181 61.4114 68.3691 48 68.3691C34.5886 68.3691 23.5864 69.9181 15.9229 72.0088C12.0945 73.0532 9.07848 74.2383 7.00781 75.4463C5.97339 76.0498 5.154 76.6714 4.58789 77.2998C4.02502 77.9247 3.67383 78.6016 3.67383 79.3047C3.6737 79.7254 3.50649 80.1293 3.20898 80.4268C2.9114 80.7242 2.50768 80.8916 2.08691 80.8916C1.66614 80.8916 1.26242 80.7242 0.964844 80.4268C0.667342 80.1293 0.500123 79.7254 0.5 79.3047V18.7822C0.500133 17.3288 1.6385 15.812 4.03516 14.334C6.40432 12.873 9.86625 11.5393 14.1875 10.4121C22.8225 8.15979 34.7779 6.76074 48 6.76074Z" stroke="url(#paint2_linear_101_1759)" stroke-opacity="0.1"/>
</g>
<g filter="url(#filter1_i_101_1759)">
<path d="M70.6062 40.5808C70.2389 40.034 61.4841 27.1304 48.0003 27.1304C34.5165 27.1304 25.7617 40.034 25.3944 40.5808C25.1656 40.9238 25.0435 41.3268 25.0435 41.7391C25.0435 42.1513 25.1656 42.5544 25.3944 42.8973C25.7617 43.4441 34.5165 56.3478 48.0003 56.3478C61.4841 56.3478 70.2389 43.4441 70.6062 42.8973C70.835 42.5544 70.9571 42.1513 70.9571 41.7391C70.9571 41.3268 70.835 40.9238 70.6062 40.5808Z" fill="white" fill-opacity="0.1"/>
</g>
<path d="M48 47.9998C51.4578 47.9998 54.2609 45.1967 54.2609 41.7389C54.2609 38.2811 51.4578 35.478 48 35.478C44.5422 35.478 41.7391 38.2811 41.7391 41.7389C41.7391 45.1967 44.5422 47.9998 48 47.9998Z" fill="url(#paint3_linear_101_1759)"/>
<foreignObject x="25.5652" y="19.3042" width="44.8696" height="44.8696"><div xmlns="http://www.w3.org/1999/xhtml" style="backdrop-filter:blur(6px);clip-path:url(#bgblur_1_101_1759_clip_path);height:100%;width:100%"></div></foreignObject><g filter="url(#filter2_i_101_1759)" data-figma-bg-blur-radius="12">
<path d="M48 52.1738C53.7629 52.1738 58.4347 47.502 58.4347 41.739C58.4347 35.976 53.7629 31.3042 48 31.3042C42.237 31.3042 37.5652 35.976 37.5652 41.739C37.5652 47.502 42.237 52.1738 48 52.1738Z" fill="#1D1D1D" fill-opacity="0.05"/>
<path d="M48 52.1738C53.7629 52.1738 58.4347 47.502 58.4347 41.739C58.4347 35.976 53.7629 31.3042 48 31.3042C42.237 31.3042 37.5652 35.976 37.5652 41.739C37.5652 47.502 42.237 52.1738 48 52.1738Z" fill="url(#paint4_linear_101_1759)" fill-opacity="0.2"/>
</g>
<g filter="url(#filter3_i_101_1759)">
<path d="M47.9992 47.9993C51.4569 47.9993 54.26 45.1962 54.26 41.7384C54.26 38.2806 51.4569 35.4775 47.9992 35.4775C44.5414 35.4775 41.7383 38.2806 41.7383 41.7384C41.7383 45.1962 44.5414 47.9993 47.9992 47.9993Z" fill="url(#paint5_linear_101_1759)"/>
</g>
<foreignObject x="-12" y="6.78271" width="40.6957" height="94.9568"><div xmlns="http://www.w3.org/1999/xhtml" style="backdrop-filter:blur(6px);clip-path:url(#bgblur_2_101_1759_clip_path);height:100%;width:100%"></div></foreignObject><g filter="url(#filter4_i_101_1759)" data-figma-bg-blur-radius="12">
<path d="M15.1075 27.9027L14.9134 27.8505C5.73287 25.5695 0 22.3514 0 18.7827V79.0644C0 83.4032 4.7207 86.9678 14.0306 89.6578C14.3414 89.7474 14.6688 89.7636 14.9869 89.705C15.305 89.6463 15.6051 89.5146 15.8636 89.3201C16.122 89.1256 16.3317 88.8737 16.4761 88.5842C16.6205 88.2948 16.6957 87.9757 16.6957 87.6523V29.9291C16.6956 29.4624 16.5392 29.0092 16.2513 28.6418C15.9634 28.2745 15.5607 28.0143 15.1075 27.9027Z" fill="#1D1D1D" fill-opacity="0.05"/>
<path d="M15.1075 27.9027L14.9134 27.8505C5.73287 25.5695 0 22.3514 0 18.7827V79.0644C0 83.4032 4.7207 86.9678 14.0306 89.6578C14.3414 89.7474 14.6688 89.7636 14.9869 89.705C15.305 89.6463 15.6051 89.5146 15.8636 89.3201C16.122 89.1256 16.3317 88.8737 16.4761 88.5842C16.6205 88.2948 16.6957 87.9757 16.6957 87.6523V29.9291C16.6956 29.4624 16.5392 29.0092 16.2513 28.6418C15.9634 28.2745 15.5607 28.0143 15.1075 27.9027Z" fill="url(#paint6_linear_101_1759)" fill-opacity="0.2"/>
<path d="M0.5 21.4995C1.24086 22.4839 2.36062 23.397 3.75879 24.229C6.39761 25.7992 10.1756 27.1871 14.7832 28.3325V28.3335L14.9775 28.3853L14.9883 28.3882C15.3328 28.473 15.6386 28.6714 15.8574 28.9507C16.0763 29.23 16.1953 29.5743 16.1953 29.9292V87.6528C16.1953 87.8986 16.1381 88.1409 16.0283 88.3608C15.9185 88.5809 15.759 88.7725 15.5625 88.9204C15.3661 89.0682 15.1382 89.1688 14.8965 89.2134C14.6546 89.258 14.4053 89.2454 14.1689 89.1772C9.54007 87.8397 6.09892 86.2973 3.8252 84.5806C1.55817 82.8689 0.5 81.0246 0.5 79.064V21.4995Z" stroke="url(#paint7_linear_101_1759)" stroke-opacity="0.1"/>
</g>
<foreignObject x="67.3044" y="6.78271" width="40.6957" height="94.9568"><div xmlns="http://www.w3.org/1999/xhtml" style="backdrop-filter:blur(6px);clip-path:url(#bgblur_3_101_1759_clip_path);height:100%;width:100%"></div></foreignObject><g filter="url(#filter5_i_101_1759)" data-figma-bg-blur-radius="12">
<path d="M80.8925 27.9027L81.0866 27.8505C90.2671 25.5695 96 22.3514 96 18.7827V79.0644C96 83.4032 91.2793 86.9678 81.9694 89.6578C81.6586 89.7474 81.3312 89.7636 81.0131 89.705C80.695 89.6463 80.3949 89.5146 80.1364 89.3201C79.878 89.1256 79.6683 88.8737 79.5239 88.5842C79.3795 88.2948 79.3043 87.9757 79.3044 87.6523V29.9291C79.3044 29.4624 79.4608 29.0092 79.7487 28.6418C80.0366 28.2745 80.4393 28.0143 80.8925 27.9027Z" fill="#1D1D1D" fill-opacity="0.05"/>
<path d="M80.8925 27.9027L81.0866 27.8505C90.2671 25.5695 96 22.3514 96 18.7827V79.0644C96 83.4032 91.2793 86.9678 81.9694 89.6578C81.6586 89.7474 81.3312 89.7636 81.0131 89.705C80.695 89.6463 80.3949 89.5146 80.1364 89.3201C79.878 89.1256 79.6683 88.8737 79.5239 88.5842C79.3795 88.2948 79.3043 87.9757 79.3044 87.6523V29.9291C79.3044 29.4624 79.4608 29.0092 79.7487 28.6418C80.0366 28.2745 80.4393 28.0143 80.8925 27.9027Z" fill="url(#paint8_linear_101_1759)" fill-opacity="0.2"/>
<path d="M95.4997 79.064C95.4997 81.0246 94.4415 82.8689 92.1745 84.5806C90.0427 86.1901 86.885 87.6464 82.6842 88.9243L81.8307 89.1772C81.5946 89.2453 81.3459 89.2578 81.1042 89.2134C80.8623 89.1688 80.6337 89.0683 80.4372 88.9204C80.2406 88.7725 80.0811 88.5809 79.9713 88.3608C79.8616 88.1409 79.8044 87.8986 79.8044 87.6528V29.9292C79.8044 29.5744 79.9235 29.23 80.1422 28.9507C80.3612 28.6714 80.6677 28.473 81.0124 28.3882L81.0221 28.3853L81.2155 28.3325C85.8238 27.187 89.6028 25.7994 92.2419 24.229C93.6393 23.3974 94.7588 22.4853 95.4997 21.5015V79.064Z" stroke="url(#paint9_linear_101_1759)" stroke-opacity="0.1"/>
</g>
<g filter="url(#filter6_i_101_1759)">
<path d="M43.8261 39.6519C44.9787 39.6519 45.913 38.7176 45.913 37.565C45.913 36.4124 44.9787 35.478 43.8261 35.478C42.6735 35.478 41.7391 36.4124 41.7391 37.565C41.7391 38.7176 42.6735 39.6519 43.8261 39.6519Z" fill="white" fill-opacity="0.1"/>
</g>
<defs>
<filter id="filter0_i_101_1759" x="-12" y="-5.73926" width="120" height="99.1304" filterUnits="userSpaceOnUse" color-interpolation-filters="sRGB">
<feFlood flood-opacity="0" result="BackgroundImageFix"/>
<feBlend mode="normal" in="SourceGraphic" in2="BackgroundImageFix" result="shape"/>
<feColorMatrix in="SourceAlpha" type="matrix" values="0 0 0 0 0 0 0 0 0 0 0 0 0 0 0 0 0 0 127 0" result="hardAlpha"/>
<feOffset dy="2"/>
<feGaussianBlur stdDeviation="4"/>
<feComposite in2="hardAlpha" operator="arithmetic" k2="-1" k3="1"/>
<feColorMatrix type="matrix" values="0 0 0 0 1 0 0 0 0 1 0 0 0 0 1 0 0 0 0.15 0"/>
<feBlend mode="normal" in2="shape" result="effect1_innerShadow_101_1759"/>
</filter>
<clipPath id="bgblur_0_101_1759_clip_path" transform="translate(12 5.73926)"><path d="M48 6.26074C21.4957 6.26074 0 11.8663 0 18.7825V79.3042C0 79.8577 0.219875 80.3885 0.611255 80.7799C1.00264 81.1713 1.53346 81.3912 2.08696 81.3912C2.64045 81.3912 3.17128 81.1713 3.56266 80.7799C3.95404 80.3885 4.17391 79.8577 4.17391 79.3042C4.17391 75.0489 21.2473 68.8694 48 68.8694C74.7527 68.8694 91.8261 75.0489 91.8261 79.3042C91.8261 79.8577 92.046 80.3885 92.4373 80.7799C92.8287 81.1713 93.3596 81.3912 93.913 81.3912C94.4665 81.3912 94.9974 81.1713 95.3887 80.7799C95.7801 80.3885 96 79.8577 96 79.3042V18.7825C96 11.8663 74.5043 6.26074 48 6.26074Z"/>
</clipPath><filter id="filter1_i_101_1759" x="25.0435" y="27.1304" width="45.9137" height="31.2173" filterUnits="userSpaceOnUse" color-interpolation-filters="sRGB">
<feFlood flood-opacity="0" result="BackgroundImageFix"/>
<feBlend mode="normal" in="SourceGraphic" in2="BackgroundImageFix" result="shape"/>
<feColorMatrix in="SourceAlpha" type="matrix" values="0 0 0 0 0 0 0 0 0 0 0 0 0 0 0 0 0 0 127 0" result="hardAlpha"/>
<feOffset dy="2"/>
<feGaussianBlur stdDeviation="1"/>
<feComposite in2="hardAlpha" operator="arithmetic" k2="-1" k3="1"/>
<feColorMatrix type="matrix" values="0 0 0 0 1 0 0 0 0 1 0 0 0 0 1 0 0 0 0.1 0"/>
<feBlend mode="normal" in2="shape" result="effect1_innerShadow_101_1759"/>
</filter>
<filter id="filter2_i_101_1759" x="25.5652" y="19.3042" width="44.8696" height="44.8696" filterUnits="userSpaceOnUse" color-interpolation-filters="sRGB">
<feFlood flood-opacity="0" result="BackgroundImageFix"/>
<feBlend mode="normal" in="SourceGraphic" in2="BackgroundImageFix" result="shape"/>
<feColorMatrix in="SourceAlpha" type="matrix" values="0 0 0 0 0 0 0 0 0 0 0 0 0 0 0 0 0 0 127 0" result="hardAlpha"/>
<feOffset dy="2"/>
<feGaussianBlur stdDeviation="4"/>
<feComposite in2="hardAlpha" operator="arithmetic" k2="-1" k3="1"/>
<feColorMatrix type="matrix" values="0 0 0 0 1 0 0 0 0 1 0 0 0 0 1 0 0 0 0.4 0"/>
<feBlend mode="normal" in2="shape" result="effect1_innerShadow_101_1759"/>
</filter>
<clipPath id="bgblur_1_101_1759_clip_path" transform="translate(-25.5652 -19.3042)"><path d="M48 52.1738C53.7629 52.1738 58.4347 47.502 58.4347 41.739C58.4347 35.976 53.7629 31.3042 48 31.3042C42.237 31.3042 37.5652 35.976 37.5652 41.739C37.5652 47.502 42.237 52.1738 48 52.1738Z"/>
</clipPath><filter id="filter3_i_101_1759" x="41.7383" y="35.4775" width="12.5217" height="14.5217" filterUnits="userSpaceOnUse" color-interpolation-filters="sRGB">
<feFlood flood-opacity="0" result="BackgroundImageFix"/>
<feBlend mode="normal" in="SourceGraphic" in2="BackgroundImageFix" result="shape"/>
<feColorMatrix in="SourceAlpha" type="matrix" values="0 0 0 0 0 0 0 0 0 0 0 0 0 0 0 0 0 0 127 0" result="hardAlpha"/>
<feOffset dy="2"/>
<feGaussianBlur stdDeviation="1"/>
<feComposite in2="hardAlpha" operator="arithmetic" k2="-1" k3="1"/>
<feColorMatrix type="matrix" values="0 0 0 0 1 0 0 0 0 1 0 0 0 0 1 0 0 0 0.4 0"/>
<feBlend mode="normal" in2="shape" result="effect1_innerShadow_101_1759"/>
</filter>
<filter id="filter4_i_101_1759" x="-12" y="6.78271" width="40.6957" height="94.9568" filterUnits="userSpaceOnUse" color-interpolation-filters="sRGB">
<feFlood flood-opacity="0" result="BackgroundImageFix"/>
<feBlend mode="normal" in="SourceGraphic" in2="BackgroundImageFix" result="shape"/>
<feColorMatrix in="SourceAlpha" type="matrix" values="0 0 0 0 0 0 0 0 0 0 0 0 0 0 0 0 0 0 127 0" result="hardAlpha"/>
<feOffset dy="2"/>
<feGaussianBlur stdDeviation="4"/>
<feComposite in2="hardAlpha" operator="arithmetic" k2="-1" k3="1"/>
<feColorMatrix type="matrix" values="0 0 0 0 1 0 0 0 0 1 0 0 0 0 1 0 0 0 0.15 0"/>
<feBlend mode="normal" in2="shape" result="effect1_innerShadow_101_1759"/>
</filter>
<clipPath id="bgblur_2_101_1759_clip_path" transform="translate(12 -6.78271)"><path d="M15.1075 27.9027L14.9134 27.8505C5.73287 25.5695 0 22.3514 0 18.7827V79.0644C0 83.4032 4.7207 86.9678 14.0306 89.6578C14.3414 89.7474 14.6688 89.7636 14.9869 89.705C15.305 89.6463 15.6051 89.5146 15.8636 89.3201C16.122 89.1256 16.3317 88.8737 16.4761 88.5842C16.6205 88.2948 16.6957 87.9757 16.6957 87.6523V29.9291C16.6956 29.4624 16.5392 29.0092 16.2513 28.6418C15.9634 28.2745 15.5607 28.0143 15.1075 27.9027Z"/>
</clipPath><filter id="filter5_i_101_1759" x="67.3044" y="6.78271" width="40.6957" height="94.9568" filterUnits="userSpaceOnUse" color-interpolation-filters="sRGB">
<feFlood flood-opacity="0" result="BackgroundImageFix"/>
<feBlend mode="normal" in="SourceGraphic" in2="BackgroundImageFix" result="shape"/>
<feColorMatrix in="SourceAlpha" type="matrix" values="0 0 0 0 0 0 0 0 0 0 0 0 0 0 0 0 0 0 127 0" result="hardAlpha"/>
<feOffset dy="2"/>
<feGaussianBlur stdDeviation="4"/>
<feComposite in2="hardAlpha" operator="arithmetic" k2="-1" k3="1"/>
<feColorMatrix type="matrix" values="0 0 0 0 1 0 0 0 0 1 0 0 0 0 1 0 0 0 0.15 0"/>
<feBlend mode="normal" in2="shape" result="effect1_innerShadow_101_1759"/>
</filter>
<clipPath id="bgblur_3_101_1759_clip_path" transform="translate(-67.3044 -6.78271)"><path d="M80.8925 27.9027L81.0866 27.8505C90.2671 25.5695 96 22.3514 96 18.7827V79.0644C96 83.4032 91.2793 86.9678 81.9694 89.6578C81.6586 89.7474 81.3312 89.7636 81.0131 89.705C80.695 89.6463 80.3949 89.5146 80.1364 89.3201C79.878 89.1256 79.6683 88.8737 79.5239 88.5842C79.3795 88.2948 79.3043 87.9757 79.3044 87.6523V29.9291C79.3044 29.4624 79.4608 29.0092 79.7487 28.6418C80.0366 28.2745 80.4393 28.0143 80.8925 27.9027Z"/>
</clipPath><filter id="filter6_i_101_1759" x="41.7391" y="35.478" width="4.17391" height="6.17395" filterUnits="userSpaceOnUse" color-interpolation-filters="sRGB">
<feFlood flood-opacity="0" result="BackgroundImageFix"/>
<feBlend mode="normal" in="SourceGraphic" in2="BackgroundImageFix" result="shape"/>
<feColorMatrix in="SourceAlpha" type="matrix" values="0 0 0 0 0 0 0 0 0 0 0 0 0 0 0 0 0 0 127 0" result="hardAlpha"/>
<feOffset dy="2"/>
<feGaussianBlur stdDeviation="1"/>
<feComposite in2="hardAlpha" operator="arithmetic" k2="-1" k3="1"/>
<feColorMatrix type="matrix" values="0 0 0 0 1 0 0 0 0 1 0 0 0 0 1 0 0 0 0.1 0"/>
<feBlend mode="normal" in2="shape" result="effect1_innerShadow_101_1759"/>
</filter>
<linearGradient id="paint0_linear_101_1759" x1="4.91016" y1="13.3721" x2="100.619" y2="47.7572" gradientUnits="userSpaceOnUse">
<stop stop-color="#75A5FF"/>
<stop offset="0.703125" stop-color="#2339FF"/>
</linearGradient>
<linearGradient id="paint1_linear_101_1759" x1="0" y1="6.26074" x2="108.911" y2="41.5971" gradientUnits="userSpaceOnUse">
<stop stop-color="#87FFE1"/>
<stop offset="0.776042" stop-color="#5C6DFF"/>
</linearGradient>
<linearGradient id="paint2_linear_101_1759" x1="3" y1="9.67576" x2="96" y2="9.67576" gradientUnits="userSpaceOnUse">
<stop stop-color="#3CDEB6"/>
<stop offset="0.65625" stop-color="#364AFF"/>
</linearGradient>
<linearGradient id="paint3_linear_101_1759" x1="41.7391" y1="35.478" x2="56.4894" y2="39.2234" gradientUnits="userSpaceOnUse">
<stop stop-color="#75A5FF"/>
<stop offset="0.703125" stop-color="#2339FF"/>
</linearGradient>
<linearGradient id="paint4_linear_101_1759" x1="37.5652" y1="31.3042" x2="62.1489" y2="37.5465" gradientUnits="userSpaceOnUse">
<stop stop-color="#87FFE1"/>
<stop offset="0.776042" stop-color="#5C6DFF"/>
</linearGradient>
<linearGradient id="paint5_linear_101_1759" x1="41.7383" y1="35.4775" x2="56.4885" y2="39.2229" gradientUnits="userSpaceOnUse">
<stop stop-color="#75A5FF"/>
<stop offset="0.703125" stop-color="#2339FF"/>
</linearGradient>
<linearGradient id="paint6_linear_101_1759" x1="0" y1="18.7827" x2="20.8605" y2="20.029" gradientUnits="userSpaceOnUse">
<stop stop-color="#87FFE1"/>
<stop offset="0.776042" stop-color="#5C6DFF"/>
</linearGradient>
<linearGradient id="paint7_linear_101_1759" x1="0.521739" y1="22.008" x2="16.6957" y2="22.008" gradientUnits="userSpaceOnUse">
<stop stop-color="#3CDEB6"/>
<stop offset="0.65625" stop-color="#364AFF"/>
</linearGradient>
<linearGradient id="paint8_linear_101_1759" x1="79.3044" y1="18.7827" x2="100.165" y2="20.029" gradientUnits="userSpaceOnUse">
<stop stop-color="#87FFE1"/>
<stop offset="0.776042" stop-color="#5C6DFF"/>
</linearGradient>
<linearGradient id="paint9_linear_101_1759" x1="79.8261" y1="22.008" x2="96" y2="22.008" gradientUnits="userSpaceOnUse">
<stop stop-color="#3CDEB6"/>
<stop offset="0.65625" stop-color="#364AFF"/>
</linearGradient>
</defs>
</svg>
